<svg aria-hidden="true" style="position: absolute; width: 0; height: 0; overflow: hidden;" version="1.1"
     xmlns="http://www.w3.org/2000/svg" xmlns:xlink="http://www.w3.org/1999/xlink">
    <defs>
        <symbol id="icon-menu" viewBox="0 0 32 32">
            <path d="M29.333 24.007c0 0.733-0.595 1.327-1.327 1.327h-10.68c-0.733 0-1.327-0.594-1.327-1.327s0.594-1.327 1.327-1.327h10.68c0.733 0 1.327 0.593 1.327 1.327zM29.333 16c0 0.733-0.595 1.327-1.327 1.327h-24.013c-0.733 0-1.327-0.594-1.327-1.327s0.594-1.327 1.327-1.327h24.013c0.733 0 1.327 0.595 1.327 1.327zM28.007 9.32c0.733 0 1.327-0.594 1.327-1.327s-0.594-1.327-1.327-1.327h-16.013c-0.733 0-1.327 0.594-1.327 1.327s0.594 1.327 1.327 1.327h16.013z"></path>
        </symbol>
        <symbol id="icon-close" viewBox="0 0 24 24">
            <path stroke-linejoin="miter" stroke-linecap="round" stroke-miterlimit="4" stroke-width="2" d="M9 6l6 6 6-6M9 18l6-6 6 6"></path>
        </symbol>
        <symbol id="icon-marketer" viewBox="0 0 32 32">
            <path fill="none" stroke="#ffc93e" style="stroke: var(--color1, #ffc93e)" stroke-linejoin="round" stroke-linecap="round" stroke-miterlimit="4" stroke-width="1.25" d="M12 22.667h4M5.333 5.333v21.333c0 0.707 0.281 1.386 0.781 1.886s1.178 0.781 1.886 0.781h16c0.707 0 1.386-0.281 1.886-0.781s0.781-1.178 0.781-1.886v-15.544c0-0.355-0.071-0.707-0.209-1.034s-0.34-0.624-0.594-0.872l-5.92-5.789c-0.498-0.487-1.167-0.76-1.864-0.76h-10.080c-0.707 0-1.386 0.281-1.886 0.781s-0.781 1.178-0.781 1.886v0zM12 17.333v0z"></path>
            <path fill="none" stroke="#ffc93e" style="stroke: var(--color1, #ffc93e)" stroke-linejoin="round" stroke-linecap="butt" stroke-miterlimit="4" stroke-width="1.25" d="M18.667 2.667v5.333c0 0.707 0.281 1.386 0.781 1.886s1.178 0.781 1.886 0.781h5.333"></path>
        </symbol>
        <symbol id="icon-designer" viewBox="0 0 32 32">
            <path fill="#ffc93e" style="fill: var(--color1, #ffc93e)" d="M9.333 15.563v7.104h7.104l-1.482-1.482h-4.141v-4.141l-1.482-1.482z"></path>
            <path fill="#ffc93e" style="fill: var(--color1, #ffc93e)" d="M28.496 26.585l-2.126-2.156v1.941h-20.741v-3.074h1.481v-1.185h-1.481v-4.926h1.481v-1.185h-1.481v-4.741h1.481v-1.185h-1.481v-4.141l11.807 11.741v-2.089l-12.022-11.963c-0.104-0.104-0.236-0.176-0.38-0.205s-0.294-0.014-0.43 0.042c-0.136 0.056-0.252 0.152-0.333 0.275s-0.124 0.267-0.123 0.414v22.963c0 0.196 0.078 0.385 0.217 0.524s0.327 0.217 0.524 0.217h23.081c0.147 0.001 0.291-0.042 0.414-0.123s0.218-0.197 0.275-0.333c0.056-0.136 0.071-0.285 0.042-0.43s-0.1-0.277-0.205-0.38z"></path>
            <path fill="#ffc93e" style="fill: var(--color1, #ffc93e)" d="M20.444 24.889h2.963c0.393 0 0.77-0.156 1.048-0.434s0.434-0.655 0.434-1.048v-14.296l-1.704-3.133c-0.132-0.228-0.322-0.417-0.551-0.547s-0.489-0.197-0.753-0.193c-0.27 0.002-0.533 0.078-0.763 0.219s-0.417 0.342-0.541 0.581l-1.615 3.089v14.282c0 0.393 0.156 0.77 0.434 1.048s0.655 0.434 1.048 0.434zM20.444 9.481l1.437-2.793 1.526 2.8v10.956h-2.963v-10.963zM20.444 21.652h2.963v1.807h-2.963v-1.807z"></path>
        </symbol>
        <symbol id="icon-web" viewBox="0 0 32 32">
            <path fill="none" stroke="#ffc93e" style="stroke: var(--color1, #ffc93e)" stroke-linejoin="round" stroke-linecap="round" stroke-miterlimit="4" stroke-width="1.25" d="M10.667 26.667h10.667M2.667 8c0-0.707 0.281-1.386 0.781-1.886s1.178-0.781 1.886-0.781h21.333c0.707 0 1.386 0.281 1.886 0.781s0.781 1.178 0.781 1.886v12c0 0.707-0.281 1.386-0.781 1.886s-1.178 0.781-1.886 0.781h-21.333c-0.707 0-1.386-0.281-1.886-0.781s-0.781-1.178-0.781-1.886v-12z"></path>
        </symbol>
        <symbol id="icon-assistant" viewBox="0 0 32 32">
            <path fill="none" stroke="#ffc93e" style="stroke: var(--color1, #ffc93e)" stroke-linejoin="round" stroke-linecap="round" stroke-miterlimit="4" stroke-width="1.25" d="M22.234 6.444v0zM24.37 3.518l-8.984 8.984c-0.464 0.463-0.781 1.054-0.91 1.697l-0.83 4.154 4.154-0.831c0.643-0.129 1.233-0.444 1.697-0.908l8.984-8.984c0.27-0.27 0.484-0.59 0.63-0.943s0.221-0.731 0.221-1.113c0-0.382-0.075-0.76-0.221-1.113s-0.36-0.673-0.63-0.943c-0.27-0.27-0.59-0.484-0.943-0.63s-0.731-0.221-1.113-0.221c-0.382 0-0.76 0.075-1.113 0.221s-0.673 0.36-0.943 0.63v0z"></path>
            <path fill="none" stroke="#ffc93e" style="stroke: var(--color1, #ffc93e)" stroke-linejoin="round" stroke-linecap="round" stroke-miterlimit="4" stroke-width="1.25" d="M26.196 21.49v4.706c0 0.832-0.331 1.63-0.919 2.218s-1.386 0.919-2.218 0.919h-17.255c-0.832 0-1.63-0.331-2.218-0.919s-0.919-1.386-0.919-2.218v-17.255c0-0.832 0.331-1.63 0.919-2.218s1.386-0.919 2.218-0.919h4.706"></path>
        </symbol>
        <symbol id="icon-check" viewBox="0 0 32 32">
            <path fill="none" stroke="#fff" style="stroke: var(--color1, #fff)" stroke-linejoin="round" stroke-linecap="round" stroke-miterlimit="4" stroke-width="2.1333" d="M29.333 14.773v1.227c-0.002 2.875-0.933 5.673-2.654 7.976s-4.141 3.988-6.899 4.803c-2.757 0.815-5.704 0.717-8.401-0.279s-5-2.838-6.565-5.25-2.308-5.265-2.119-8.134c0.189-2.869 1.301-5.6 3.169-7.786s4.393-3.709 7.197-4.343c2.805-0.634 5.739-0.344 8.365 0.826"></path>
            <path fill="none" stroke="#fff" style="stroke: var(--color1, #fff)" stroke-linejoin="round" stroke-linecap="round" stroke-miterlimit="4" stroke-width="2.1333" d="M29.333 5.333l-13.333 13.347-4-4"></path>
        </symbol>
        <symbol id="icon-arrow" viewBox="0 0 23 32">
            <path d="M7.592 18.953c-0.426-0.426-0.426-1.117 0-1.543l5.774-5.774-5.774-5.774c-0.426-0.426-0.426-1.117 0-1.543s1.117-0.426 1.543 0l6.545 6.545c0.426 0.426 0.426 1.117 0 1.543l-6.545 6.545c-0.426 0.426-1.117 0.426-1.543 0z"></path>
        </symbol>
    </defs>
</svg>
