<svg xmlns="http://www.w3.org/2000/svg" version="1.1" xmlns:xlink="http://www.w3.org/1999/xlink" width="200" height="200"><svg xmlns="http://www.w3.org/2000/svg" version="1.1" xmlns:xlink="http://www.w3.org/1999/xlink" viewBox="0 0 200 200"><rect width="200" height="200" fill="url('#gradient')"></rect><defs><linearGradient id="SvgjsLinearGradient1001" gradientTransform="rotate(45 0.5 0.5)"><stop offset="0%" stop-color="#ffffff"></stop><stop offset="100%" stop-color="#ffffff"></stop></linearGradient></defs><g><g fill="#ffc93e" transform="matrix(1.6373811850404192,0,0,1.6373811850404192,8.241118516349722,108.7938300328705)" stroke="#ffc93e" stroke-width="0.2"><path d="M1.07-14.22L5.58-14.22L8.75-4.33L11.91-14.22L16.43-14.22L16.43 0L12.99 0L12.99-3.32L13.32-10.12L9.88 0L7.62 0L4.17-10.13L4.50-3.32L4.50 0L1.07 0L1.07-14.22ZM27.70 0L24.40 0Q24.23-0.32 24.09-0.95L24.09-0.95Q23.18 0.20 21.55 0.20L21.55 0.20Q20.06 0.20 19.01-0.71Q17.97-1.61 17.97-2.98L17.97-2.98Q17.97-4.70 19.24-5.58Q20.51-6.46 22.93-6.46L22.93-6.46L23.95-6.46L23.95-7.01Q23.95-8.47 22.69-8.47L22.69-8.47Q21.51-8.47 21.51-7.31L21.51-7.31L18.22-7.31Q18.22-8.85 19.53-9.80Q20.83-10.76 22.85-10.76Q24.87-10.76 26.04-9.78Q27.22-8.79 27.25-7.07L27.25-7.07L27.25-2.39Q27.27-0.94 27.70-0.17L27.70-0.17L27.70 0ZM22.34-2.15L22.34-2.15Q22.96-2.15 23.36-2.41Q23.77-2.68 23.95-3.01L23.95-3.01L23.95-4.70L22.99-4.70Q21.27-4.70 21.27-3.15L21.27-3.15Q21.27-2.71 21.57-2.43Q21.88-2.15 22.34-2.15ZM35.62 0L33.31-3.94L32.38-3.01L32.38 0L29.09 0L29.09-15.01L32.38-15.01L32.38-7.04L32.71-7.48L35.20-10.57L39.14-10.57L35.44-6.22L39.38 0L35.62 0ZM44.92 0.20L44.92 0.20Q42.49 0.20 40.99-1.25Q39.48-2.71 39.48-5.03L39.48-5.03L39.48-5.30Q39.48-6.92 40.08-8.16Q40.68-9.40 41.84-10.08Q42.99-10.76 44.57-10.76L44.57-10.76Q46.80-10.76 48.09-9.38Q49.38-8.00 49.38-5.53L49.38-5.53L49.38-4.25L42.83-4.25Q43.01-3.36 43.60-2.85Q44.20-2.34 45.15-2.34L45.15-2.34Q46.71-2.34 47.59-3.44L47.59-3.44L49.09-1.66Q48.48-0.81 47.35-0.31Q46.22 0.20 44.92 0.20ZM44.55-8.22L44.55-8.22Q43.11-8.22 42.83-6.31L42.83-6.31L46.15-6.31L46.15-6.56Q46.17-7.35 45.75-7.79Q45.33-8.22 44.55-8.22ZM50.85-14.22L55.35-14.22L58.53-4.33L61.69-14.22L66.20-14.22L66.20 0L62.76 0L62.76-3.32L63.10-10.12L59.66 0L57.39 0L53.95-10.13L54.28-3.32L54.28 0L50.85 0L50.85-14.22ZM67.82-4.82L67.81-5.38Q67.81-6.96 68.43-8.20Q69.04-9.43 70.20-10.10Q71.35-10.76 72.90-10.76L72.90-10.76Q75.27-10.76 76.64-9.29Q78.01-7.82 78.01-5.29L78.01-5.29L78.01-5.18Q78.01-2.71 76.64-1.25Q75.26 0.20 72.92 0.20L72.92 0.20Q70.66 0.20 69.30-1.16Q67.93-2.51 67.82-4.82L67.82-4.82ZM71.11-5.77L71.10-5.18Q71.10-3.71 71.56-3.03Q72.02-2.34 72.92-2.34L72.92-2.34Q74.68-2.34 74.72-5.05L74.72-5.05L74.72-5.38Q74.72-8.22 72.90-8.22L72.90-8.22Q71.25-8.22 71.11-5.77L71.11-5.77ZM79.39-10.57L82.48-10.57L82.59-9.33Q83.68-10.76 85.61-10.76L85.61-10.76Q87.26-10.76 88.07-9.78Q88.89-8.79 88.92-6.81L88.92-6.81L88.92 0L85.62 0L85.62-6.67Q85.62-7.47 85.29-7.85Q84.97-8.22 84.12-8.22L84.12-8.22Q83.15-8.22 82.69-7.46L82.69-7.46L82.69 0L79.39 0L79.39-10.57ZM95.85 0.20L95.85 0.20Q93.42 0.20 91.91-1.25Q90.41-2.71 90.41-5.03L90.41-5.03L90.41-5.30Q90.41-6.92 91.01-8.16Q91.61-9.40 92.76-10.08Q93.92-10.76 95.50-10.76L95.50-10.76Q97.72-10.76 99.01-9.38Q100.30-8.00 100.30-5.53L100.30-5.53L100.30-4.25L93.76-4.25Q93.94-3.36 94.53-2.85Q95.13-2.34 96.07-2.34L96.07-2.34Q97.64-2.34 98.52-3.44L98.52-3.44L100.02-1.66Q99.40-0.81 98.28-0.31Q97.15 0.20 95.85 0.20ZM95.48-8.22L95.48-8.22Q94.03-8.22 93.76-6.31L93.76-6.31L97.08-6.31L97.08-6.56Q97.10-7.35 96.68-7.79Q96.26-8.22 95.48-8.22ZM104.05-10.57L105.72-4.61L107.48-10.57L111.01-10.57L106.70 1.77L106.51 2.22Q105.60 4.27 103.27 4.27L103.27 4.27Q102.63 4.27 101.91 4.07L101.91 4.07L101.91 1.72L102.34 1.72Q103.04 1.72 103.40 1.52Q103.77 1.32 103.95 0.80L103.95 0.80L104.21 0.10L100.54-10.57L104.05-10.57Z"></path></g></g></svg><style>@media (prefers-color-scheme: light) { :root { filter: none; } }
@media (prefers-color-scheme: dark) { :root { filter: none; } }
</style></svg>